<?xml version="1.0" encoding="utf-8"?>
<!-- Generator: Adobe Illustrator 15.1.0, SVG Export Plug-In . SVG Version: 6.00 Build 0)  -->
<!DOCTYPE svg PUBLIC "-//W3C//DTD SVG 1.1//EN" "http://www.w3.org/Graphics/SVG/1.1/DTD/svg11.dtd">
<svg version="1.1" id="Layer_1" xmlns="http://www.w3.org/2000/svg" xmlns:xlink="http://www.w3.org/1999/xlink" x="0px" y="0px"
	 width="1730px" height="378px" viewBox="0 0 1730 378" enable-background="new 0 0 1730 378" xml:space="preserve">
<g>
	<path fill="#6D6E70" d="M1655.127,191.642c-8.246,0-16.206-0.856-24.096-2.499c-7.817-1.642-15.172-4.088-22.079-7.247
		c-6.891-3.177-13.084-7.032-18.527-11.512l15.011-26.756c6.622,5.462,14.279,9.639,22.937,12.602
		c8.656,2.98,17.58,4.426,26.755,4.426c10.55,0,18.742-1.767,24.561-5.373c5.891-3.57,8.746-8.621,8.746-15.153v-0.125
		c0-4.623-1.268-8.192-3.891-10.906c-2.607-2.642-5.98-4.604-10.175-5.89c-4.141-1.268-9.531-2.427-16.063-3.427
		c-0.251-0.108-0.481-0.126-0.625-0.126c-0.215,0-0.482-0.017-0.696-0.125l-2.606-0.357c-11.458-1.785-21.024-4.07-28.593-6.783
		c-7.533-2.713-14.013-7.497-19.242-14.314c-5.283-6.819-7.96-16.493-7.96-29.023v-0.106c0-11.103,2.517-20.616,7.479-28.487
		c4.963-7.89,12.19-13.905,21.614-18.028c9.461-4.141,20.92-6.211,34.307-6.211c6.14,0,12.44,0.696,18.849,2.106
		c6.426,1.41,12.708,3.48,18.849,6.14c6.104,2.713,11.994,5.961,17.491,9.745l-13.672,27.381c-6.64-4.569-13.6-8.104-20.775-10.621
		c-7.212-2.552-14.137-3.801-20.741-3.801c-9.96,0-17.636,1.642-23.061,4.89c-5.426,3.284-8.175,7.89-8.175,13.815v0.107
		c0,4.962,1.428,8.889,4.283,11.745c2.82,2.874,6.319,4.998,10.495,6.354c4.213,1.32,10.031,2.713,17.636,4.229
		c0.303,0.071,0.588,0.143,0.91,0.197c0.338,0.035,0.66,0.088,0.981,0.143c0.427,0.071,0.928,0.214,1.32,0.321
		c0.464,0.089,0.893,0.232,1.374,0.304c10.906,2.142,19.974,4.73,27.221,7.729c7.353,3.034,13.422,7.925,18.313,14.671
		c4.892,6.747,7.317,15.921,7.317,27.595v0.25c0,10.924-2.57,20.33-7.711,28.13c-5.122,7.817-12.565,13.744-22.382,17.885
		C1680.688,189.606,1668.871,191.642,1655.127,191.642"/>
	<path fill="#6D6E70" d="M1502.697,191.642c-13.209,0-24.525-2.499-33.914-7.497c-9.371-5.016-16.491-12.315-21.383-21.882
		c-4.891-9.567-7.354-21.098-7.354-34.592v-109.7h32.414v110.521c0,9.888,2.606,17.527,7.907,22.989
		c5.266,5.426,12.744,8.139,22.33,8.139c9.71,0,17.225-2.713,22.525-8.139c5.319-5.461,7.996-13.101,7.996-22.989V17.971h32.414
		v109.7c0,13.494-2.518,25.025-7.426,34.592c-4.944,9.567-12.101,16.867-21.525,21.882
		C1527.292,189.143,1515.941,191.642,1502.697,191.642"/>
	<rect x="1373.398" y="17.971" fill="#6D6E70" width="33.556" height="171.886"/>
	<path fill="#6D6E70" d="M1250.33,89.51h40.321c3.32,0,6.21-0.857,8.746-2.499c2.534-1.66,4.461-3.998,5.818-7.104
		c1.409-3.07,2.178-6.604,2.249-10.602c0-4.035-0.75-7.586-2.106-10.674c-1.357-3.052-3.32-5.426-5.854-7.104
		c-2.517-1.642-5.462-2.427-8.853-2.427h-40.321V89.51z M1306.857,119.032l41.124,70.825h-39.231l-38.768-69.147h-19.652v69.147
		h-32.379V17.864h12.87h19.509h42.892c9.458,0,17.776,2.142,24.988,6.372c7.14,4.266,12.743,10.263,16.635,18.045
		c3.964,7.782,5.927,16.778,5.927,27.024c0,10.263-1.963,19.241-5.927,27.005c-3.892,7.782-9.531,13.762-16.707,18.01
		C1314.641,116.39,1310.892,117.943,1306.857,119.032z"/>
	<path fill="#6D6E70" d="M1120.907,191.642c-12.478,0-23.454-2.642-32.932-7.854c-9.514-5.265-16.886-12.655-22.063-22.239
		c-5.229-9.55-7.8-20.651-7.8-33.271V79.586c0-12.637,2.57-23.722,7.8-33.271c5.177-9.567,12.549-16.992,22.063-22.24
		c9.478-5.247,20.454-7.854,32.932-7.854c12.404,0,23.418,2.606,32.877,7.854c9.532,5.248,16.886,12.673,22.062,22.24
		c5.212,9.549,7.781,20.633,7.781,33.271v48.692c0,12.619-2.569,23.721-7.781,33.271c-5.176,9.584-12.529,16.974-22.062,22.239
		C1144.325,189,1133.312,191.642,1120.907,191.642 M1120.907,159.228c5.8,0,10.923-1.249,15.313-3.713
		c4.463-2.499,7.836-5.997,10.264-10.548c2.374-4.587,3.569-9.853,3.569-15.868V78.729c0-5.962-1.195-11.246-3.569-15.815
		c-2.428-4.587-5.801-8.086-10.264-10.602c-4.391-2.463-9.514-3.695-15.313-3.695c-5.837,0-10.961,1.232-15.387,3.695
		c-4.427,2.516-7.817,6.015-10.245,10.602c-2.392,4.569-3.587,9.853-3.587,15.815v50.369c0,6.016,1.195,11.281,3.587,15.868
		c2.428,4.551,5.818,8.05,10.245,10.548C1109.946,157.979,1115.07,159.228,1120.907,159.228z"/>
	<polygon fill="#6D6E70" points="921.426,17.971 1047.459,17.971 1047.459,49.207 1000.64,49.207 1000.64,189.857 968.227,189.857 
		968.227,49.207 921.426,49.207 	"/>
	<path fill="#6D6E70" d="M819.651,89.51h40.339c3.32,0,6.211-0.857,8.71-2.499c2.552-1.66,4.479-3.998,5.854-7.104
		c1.392-3.07,2.124-6.604,2.195-10.602c0-4.035-0.696-7.586-2.089-10.674c-1.355-3.052-3.284-5.426-5.854-7.104
		c-2.498-1.642-5.426-2.427-8.816-2.427h-40.339V89.51z M876.197,119.032l41.088,70.825h-39.214l-38.75-69.147h-19.67v69.147
		h-32.396V17.864h12.886h19.509h42.91c9.441,0,17.777,2.142,24.952,6.372c7.157,4.266,12.745,10.263,16.671,18.045
		c3.928,7.782,5.926,16.778,5.926,27.024c0,10.263-1.998,19.241-5.926,27.005c-3.926,7.782-9.531,13.762-16.742,18.01
		C883.943,116.39,880.195,117.943,876.197,119.032z"/>
	<path fill="#6D6E70" d="M721.428,162.316h-62.954l-9.674,27.541h-34.859l65.738-171.886h20.526l65.738,171.886h-34.859
		L721.428,162.316z M669.398,131.116h41.088l-20.544-58.598L669.398,131.116z"/>
	<path fill="#6D6E70" d="M540.188,191.642c-8.228,0-16.224-0.856-24.078-2.499s-15.189-4.088-22.08-7.247
		c-6.889-3.177-13.083-7.032-18.545-11.512l15.029-26.756c6.604,5.462,14.279,9.639,22.918,12.602
		c8.675,2.98,17.582,4.426,26.755,4.426c10.55,0,18.724-1.767,24.579-5.373c5.854-3.57,8.746-8.621,8.746-15.153v-0.125
		c0-4.623-1.285-8.192-3.891-10.906c-2.605-2.642-5.998-4.604-10.192-5.89c-4.141-1.268-9.514-2.427-16.046-3.427
		c-0.25-0.108-0.5-0.126-0.643-0.126c-0.196,0-0.464-0.017-0.714-0.125l-2.57-0.357c-11.495-1.785-21.027-4.07-28.612-6.783
		c-7.533-2.713-13.994-7.497-19.242-14.314c-5.301-6.819-7.943-16.493-7.943-29.023v-0.106c0-11.103,2.499-20.616,7.479-28.487
		c4.944-7.89,12.173-13.905,21.615-18.028c9.424-4.141,20.901-6.211,34.305-6.211c6.105,0,12.423,0.696,18.831,2.106
		c6.426,1.41,12.727,3.48,18.832,6.14c6.14,2.713,11.995,5.961,17.527,9.745l-13.708,27.381c-6.64-4.569-13.565-8.104-20.74-10.621
		c-7.247-2.552-14.137-3.801-20.741-3.801c-9.977,0-17.635,1.642-23.096,4.89c-5.408,3.284-8.139,7.89-8.139,13.815v0.107
		c0,4.962,1.41,8.889,4.248,11.745c2.855,2.874,6.337,4.998,10.531,6.354c4.176,1.32,10.013,2.713,17.635,4.229
		c0.304,0.071,0.571,0.143,0.892,0.197c0.322,0.035,0.643,0.088,0.982,0.143c0.429,0.071,0.946,0.214,1.321,0.321
		c0.463,0.089,0.892,0.232,1.375,0.304c10.888,2.142,19.973,4.73,27.237,7.729c7.318,3.034,13.404,7.925,18.277,14.671
		c4.891,6.747,7.354,15.921,7.354,27.595v0.25c0,10.924-2.57,20.33-7.71,28.13c-5.104,7.817-12.566,13.744-22.382,17.885
		C565.767,189.606,553.951,191.642,540.188,191.642"/>
	<path fill-rule="evenodd" clip-rule="evenodd" fill="#C3161C" d="M1051.67,344.215h-40.178l-6.14,17.599h-22.258l41.963-109.7
		h13.083l41.928,109.7h-22.241L1051.67,344.215z M1018.453,324.331h26.256l-13.119-37.412L1018.453,324.331z"/>
	<rect x="949.592" y="252.114" fill-rule="evenodd" clip-rule="evenodd" fill="#C3161C" width="21.419" height="109.7"/>
	<polygon fill-rule="evenodd" clip-rule="evenodd" fill="#C3161C" points="861.597,252.114 942.023,252.114 942.023,272.069 
		912.18,272.069 912.18,361.814 891.476,361.814 891.476,272.069 861.597,272.069 	"/>
	<path fill-rule="evenodd" clip-rule="evenodd" fill="#C3161C" d="M837.714,344.215h-40.196l-6.14,17.599h-22.257l41.963-109.7
		h13.083l41.963,109.7h-22.239L837.714,344.215z M804.515,324.331h26.22l-13.119-37.412L804.515,324.331z"/>
	<path fill-rule="evenodd" clip-rule="evenodd" fill="#C3161C" d="M720.018,362.939c-7.961,0-14.976-1.66-20.99-5.016
		c-6.105-3.337-10.781-8.068-14.119-14.172c-3.302-6.122-4.962-13.208-4.962-21.205v-31.092c0-8.068,1.66-15.154,4.962-21.276
		c3.338-6.069,8.014-10.816,14.119-14.173c6.014-3.337,13.029-4.998,20.99-4.998c7.925,0,14.922,1.66,20.973,4.998
		c6.086,3.356,10.763,8.104,14.083,14.173c3.355,6.122,4.998,13.208,4.998,21.276v31.092c0,7.997-1.642,15.083-4.998,21.205
		c-3.32,6.104-7.997,10.835-14.083,14.172C734.94,361.279,727.943,362.939,720.018,362.939 M720.018,342.288
		c3.695,0,6.997-0.803,9.781-2.374c2.856-1.589,4.998-3.837,6.533-6.747c1.535-2.945,2.32-6.301,2.32-10.121v-32.128
		c0-3.819-0.785-7.175-2.32-10.102c-1.535-2.927-3.677-5.177-6.533-6.783c-2.784-1.571-6.086-2.356-9.781-2.356
		c-3.749,0-6.997,0.785-9.817,2.356c-2.82,1.606-4.961,3.855-6.532,6.783c-1.536,2.927-2.303,6.283-2.303,10.102v32.128
		c0,3.82,0.767,7.176,2.303,10.121c1.571,2.909,3.712,5.158,6.532,6.747C713.021,341.484,716.27,342.288,720.018,342.288z"/>
	<path fill-rule="evenodd" clip-rule="evenodd" fill="#C3161C" d="M602.179,297.771h25.738c2.106,0,3.927-0.535,5.533-1.57
		c1.642-1.088,2.874-2.57,3.767-4.569c0.892-1.945,1.374-4.212,1.41-6.783c0-2.552-0.464-4.819-1.356-6.765
		c-0.857-1.981-2.106-3.48-3.712-4.533c-1.607-1.054-3.499-1.589-5.641-1.589h-25.738V297.771z M638.251,316.62l26.221,45.194
		h-25.043l-24.685-44.123h-12.565v44.123H581.51V252.043h8.21h12.458h27.381c6.014,0,11.315,1.356,15.921,4.069
		c4.569,2.749,8.139,6.551,10.62,11.513c2.517,4.962,3.784,10.691,3.784,17.224c0,6.551-1.267,12.316-3.784,17.242
		c-2.481,4.962-6.069,8.782-10.656,11.495C643.214,314.907,640.804,315.924,638.251,316.62z"/>
	<path fill-rule="evenodd" clip-rule="evenodd" fill="#C3161C" d="M523.322,362.939c-8.353,0-15.493-1.589-21.418-4.766
		c-5.944-3.177-10.442-7.854-13.565-13.958c-3.142-6.105-4.677-13.494-4.677-22.151v-30.111c0-8.639,1.535-16.029,4.677-22.133
		c3.124-6.122,7.621-10.781,13.565-13.976c5.926-3.249,13.065-4.837,21.418-4.837c6.89,0,13.066,1.464,18.527,4.426
		c5.391,2.963,9.889,7.301,13.441,12.959c3.516,5.64,6.015,12.458,7.335,20.455h-21.419c-0.802-3.605-2.052-6.711-3.748-9.246
		c-1.678-2.606-3.713-4.534-6.087-5.891c-2.409-1.356-5.087-2.034-8.05-2.034c-3.855,0-7.14,0.785-9.871,2.356
		c-2.695,1.606-4.802,3.927-6.229,6.961c-1.41,3.017-2.177,6.694-2.177,10.959v30.111c0,4.266,0.768,7.925,2.177,10.959
		c1.428,3.016,3.535,5.301,6.229,6.89c2.731,1.571,6.016,2.374,9.871,2.374c3.017,0,5.747-0.679,8.139-1.999
		c2.428-1.338,4.462-3.284,6.14-5.854c1.642-2.57,2.873-5.694,3.605-9.353h21.419c-1.392,7.996-3.891,14.833-7.425,20.491
		c-3.534,5.64-8.032,9.959-13.422,12.923C536.388,361.457,530.211,362.939,523.322,362.939"/>
	<path fill-rule="evenodd" clip-rule="evenodd" fill="#C3161C" d="M358.129,86.726H83.094v68.771h68.754h64.81h72.699v137.491
		H151.848v-34.341H83.094v103.113h275.036V86.726z M220.424,17.971H14.125v206.263h206.299v-34.377h-34.377H75.597H48.502V52.348
		h30.736h106.809h34.377V17.971z"/>
</g>
</svg>
